<?xml version="1.0" encoding="UTF-8" standalone="no"?>
<!DOCTYPE svg PUBLIC "-//W3C//DTD SVG 20010904//EN" "http://www.w3.org/TR/2001/REC-SVG-20010904/DTD/svg10.dtd">

<svg xmlns="http://www.w3.org/2000/svg" width="1000px" height="1000px" viewBox="0 0 1000 1000">
  <path id="Arm" fill="none" stroke="black" stroke-width="1"
    d="M 321.45,518.18
       C 333.98,519.14 486.24,526.30 498.17,527.00
         511.56,527.44 517.50,521.62 521.43,516.74
         528.87,507.22 561.57,463.31 568.55,454.00
         574.75,444.81 567.50,431.50 552.00,435.09
         528.91,439.98 346.42,476.83 324.00,481.27
         312.39,483.96 306.00,488.43 305.75,500.00
         305.83,509.30 311.35,516.70 321.45,518.18 Z
       M 321.06,494.03
       C 312.19,500.92 321.00,509.11 326.94,505.97
         333.83,502.34 330.78,491.03 321.06,494.03 Z
       M 497.06,494.03
       C 488.19,500.92 497.00,509.11 502.94,505.97
         509.83,502.34 506.78,491.03 497.06,494.03 Z" />
</svg>