<?xml version="1.0" encoding="UTF-8" standalone="no"?>
<!DOCTYPE svg PUBLIC "-//W3C//DTD SVG 20010904//EN"
              "http://www.w3.org/TR/2001/REC-SVG-20010904/DTD/svg10.dtd">

<svg xmlns="http://www.w3.org/2000/svg"
     width="1000px" height="1000px"
     viewBox="0 0 1000 1000">
  <path id="Boom"
        fill="none" stroke="black" stroke-width="1"
        d="M 112.06,494.03
           C 103.19,500.92 112.00,509.11 117.94,505.97
             124.83,502.34 121.78,491.03 112.06,494.03 Z
           M 497.06,494.03
           C 488.19,500.92 497.00,509.11 502.94,505.97
             509.83,502.34 506.78,491.03 497.06,494.03 Z
           M 489.09,540.64
           C 464.07,530.87 359.66,490.66 334.33,480.33
             318.73,474.36 310.36,474.18 297.33,477.67
             277.33,483.39 144.78,520.45 119.91,526.82
             104.64,529.00 92.18,519.36 88.91,507.00
             86.18,494.91 90.55,481.45 104.27,475.27
             119.54,469.05 252.88,412.90 300.64,392.45
             319.18,384.27 336.82,385.36 352.52,392.57
             402.57,415.75 497.60,453.01 518.64,462.27
             536.18,470.09 548.09,494.36 539.00,516.67
             530.82,535.55 509.00,546.91 489.09,540.64 Z" />
</svg>
