<?xml version="1.0" encoding="UTF-8" standalone="no"?>
<!DOCTYPE svg PUBLIC "-//W3C//DTD SVG 20010904//EN"
              "http://www.w3.org/TR/2001/REC-SVG-20010904/DTD/svg10.dtd">

<svg xmlns="http://www.w3.org/2000/svg"
     width="1000px" height="1000px"
     viewBox="0 0 1000 1000">
  <path id="Bucket"
        fill="none" stroke="black" stroke-width="1"
        d="M 515.25,485.38
           C 523.50,457.25 512.88,426.75 485.00,412.38
             443.25,393.25 412.38,413.88 398.75,437.88
             392.44,448.49 369.89,488.81 367.00,494.00
             362.69,501.59 367.41,500.66 371.75,497.50
             379.26,491.89 387.17,486.42 395.88,480.62
             415.79,487.00 464.94,502.43 480.17,507.48
             482.09,515.22 491.09,521.30 500.00,521.57
             512.78,521.39 518.87,512.39 520.91,505.04
             522.70,497.43 520.09,489.09 515.25,485.38 Z
           M 497.06,494.03
           C 488.19,500.92 497.00,509.11 502.94,505.97
             509.83,502.34 506.78,491.03 497.06,494.03 Z" />
</svg>
